<svg viewBox="0 0 52 81" fill="none" xmlns="http://www.w3.org/2000/svg">
<path d="M27.5 1H22C9.67672 1 0 9.58344 0 21.9067V57.419C0 69.7422 10.0834 79.8257 22.4067 79.8257H27.5911C39.9143 79.8257 49.9978 69.7422 49.9978 57.419V21.9067C49.9978 9.58344 39.8233 1 27.5 1Z" fill="#15B7B9"/>
<path d="M24.543 2.58368C30.8913 5.30798 36.925 9.2172 37.6275 19.0951C38.4412 30.5355 34.2091 51.9565 32.8459 62.8369C31.8958 70.4435 28.1334 73.9668 23.1357 77.9579C20.6191 79.9733 34.1818 79.7279 39.7667 76.4625C44.5609 73.6606 46.855 70.9625 48.355 68.9625C52.355 62.4625 50.9959 37.3055 50.355 16.4625C50.355 16.4625 47.9731 1.70495 31.9734 1.69865C31.9734 1.69865 15.9255 0.874448 24.543 2.58368Z" fill="#10DDC2" fill-opacity="0.8"/>
<path d="M25.3496 9.5C24.1971 9.50332 23.0926 9.96265 22.2777 10.7776C21.4627 11.5926 21.0033 12.6971 21 13.8496V26.0848C21.0039 27.237 21.4634 28.3409 22.2784 29.1555C23.0933 29.97 24.1974 30.429 25.3496 30.4324C26.5019 30.429 27.606 29.97 28.4209 29.1555C29.2358 28.3409 29.6954 27.237 29.6993 26.0848V13.8496C29.696 12.6971 29.2366 11.5926 28.4216 10.7776C27.6066 9.96265 26.5022 9.50332 25.3496 9.5Z" fill="#3F3F3F"/>
<path d="M31.5607 79.4223H19.9484C9.52521 79.4223 1 70.8971 1 60.476V20.4463C1 10.0252 9.52731 1.5 19.9484 1.5H31.5586C41.9818 1.5 50.507 10.0252 50.507 20.4463V60.476C50.507 70.8971 41.9797 79.4223 31.5586 79.4223H31.5607Z" stroke="#0d8f91" stroke-width="2" stroke-miterlimit="10" stroke-linecap="round" stroke-linejoin="round"/>
<path d="M25.6097 30.6903H25.2574C24.1291 30.6876 23.0478 30.2381 22.25 29.4403C21.4522 28.6425 21.0028 27.5612 21 26.433V13.7553C21 11.4148 22.9169 9.5 25.2574 9.5H25.6097C27.9502 9.5 29.8671 11.4148 29.8671 13.7574V26.4372C29.8671 28.7777 27.9502 30.6945 25.6097 30.6945V30.6903Z" stroke="#0d8f91" stroke-width="2" stroke-miterlimit="10" stroke-linecap="round" stroke-linejoin="round"/>
</svg>
